<?xml version="1.0" encoding="UTF-8"?>
<svg width="180" height="180" viewBox="0 0 180 180" fill="none" xmlns="http://www.w3.org/2000/svg">
  <style>
    @media (prefers-color-scheme: light) {
      .bg { fill: #a93463; }
      .cloud { fill: white; }
    }
    @media (prefers-color-scheme: dark) {
      .bg { fill: #a93463; }
      .cloud { fill: white; }
    }
  </style>
  <rect class="bg" width="180" height="180" rx="37" />
  <!-- Cloud icon centered -->
  <path class="cloud" d="M129.5,96.5c0-1.2-0.1-2.4-0.4-3.5c2.1-1.8,3.4-4.4,3.4-7.3c0-5.4-4.3-9.7-9.7-9.7
    c-1.1,0-2.2,0.2-3.2,0.5C117.8,71.5,112.9,68,107,68c-3.7,0-7.1,1.6-9.5,4.1c-1.4-0.6-2.9-0.9-4.5-0.9
    c-6.3,0-11.4,5.1-11.4,11.4c0,0.9,0.1,1.8,0.3,2.6C79.5,86.7,77,89.9,77,93.7c0,5.4,4.4,9.8,9.8,9.8h41
    c4.8,0,8.7-3.9,8.7-8.7C136.5,93.5,133.4,90.3,129.5,96.5z" transform="translate(-17, 10) scale(1.1)"/>
</svg>