<?xml version="1.0" encoding="UTF-8"?>
<svg id="Layer_1" data-name="Layer 1" xmlns="http://www.w3.org/2000/svg" viewBox="0 0 500 500">
  <defs>
    <style>
      .cls-1, .cls-2 {
        letter-spacing: 0em;
      }

      .cls-1, .cls-3, .cls-4, .cls-5 {
        fill: #a93463;
      }

      .cls-1, .cls-3, .cls-5 {
        font-family: McDonutsDemoRegular, 'Mc Donuts Demo';
        font-size: 57.68px;
      }

      .cls-4 {
        stroke-width: 0px;
      }

      .cls-6 {
        letter-spacing: -.04em;
      }

      .cls-5 {
        letter-spacing: 0em;
      }
    </style>
  </defs>
  <text class="cls-5" transform="translate(177.22 288.29)"><tspan x="0" y="0">Pe</tspan></text>
  <text class="cls-1" transform="translate(167.65 235.29)"><tspan x="0" y="0">adalo</tspan></text>
  <path class="cls-4" d="M348.43,192.16c-17.09,6.3-12.53,20.18-12.53,20.18-8.35-3.48-14.61,6.26-14.61,6.26-2.78,12.53,9.74,17.4,9.74,17.4l60.54.7s16.7-3.48,13.92-13.92c-2.78-10.44-11.83-11.83-11.83-11.83,0,0-1.78-6.85-6.26-10.44-3.48-2.78-10.44-6.96-17.4,2.09,0,0-8.35-15.31-21.57-10.44Z"/>
  <text class="cls-3" transform="translate(258.81 288.72)"><tspan class="cls-6" x="0" y="0">R</tspan><tspan class="cls-2" x="44.1" y="0">asoi</tspan></text>
  <text class="cls-5" transform="translate(88.2 237.57)"><tspan x="0" y="0">Ba</tspan></text>
</svg>